<?xml version="1.0" encoding="utf-8"?>
<!-- Generator: Adobe Illustrator 16.2.1, SVG Export Plug-In . SVG Version: 6.00 Build 0)  -->
<!DOCTYPE svg PUBLIC "-//W3C//DTD SVG 1.1//EN" "http://www.w3.org/Graphics/SVG/1.1/DTD/svg11.dtd">
<svg version="1.1" id="Layer_1" xmlns="http://www.w3.org/2000/svg" xmlns:xlink="http://www.w3.org/1999/xlink" x="0px" y="0px"
	 width="351.5px" height="43.957px" viewBox="0 0 351.5 43.957" enable-background="new 0 0 351.5 43.957" xml:space="preserve">
<g>
	<circle fill="#FFFFFF" cx="28.967" cy="32.28" r="3.094"/>
	<circle fill="#FFFFFF" cx="23.801" cy="36.051" r="3.281"/>
	<circle fill="#FFFFFF" cx="17.28" cy="37.468" r="3.281"/>
	<circle fill="#FFFFFF" cx="10.78" cy="35.78" r="3.344"/>
	<circle fill="#FFFFFF" cx="5.842" cy="30.905" r="3.594"/>
	<circle fill="#FFFFFF" cx="4.467" cy="23.03" r="4.406"/>
	<circle fill="#FFFFFF" cx="44.53" cy="36.03" r="3.938"/>
	<circle fill="#FFFFFF" cx="44.53" cy="28.155" r="3.938"/>
	<circle fill="#FFFFFF" cx="44.405" cy="20.863" r="3.312"/>
	<circle fill="#FFFFFF" cx="44.749" cy="8.707" r="4.156"/>
	<circle fill="#FFFFFF" cx="66.53" cy="23.426" r="3.562"/>
	<circle fill="#FFFFFF" cx="66.592" cy="30.3" r="3.375"/>
	<ellipse fill="#FFFFFF" cx="46.635" cy="15.464" rx="2.419" ry="2.478"/>
	<circle fill="#FFFFFF" cx="49.759" cy="12.259" r="1.875"/>
	<circle fill="#FFFFFF" cx="53.384" cy="9.425" r="2.792"/>
	<circle fill="#FFFFFF" cx="60.154" cy="8.82" r="3.979"/>
	<circle fill="#FFFFFF" cx="72.041" cy="11.019" r="2.573"/>
	<circle fill="#FFFFFF" cx="77.623" cy="8.477" r="3.51"/>
	<circle fill="#FFFFFF" cx="85.811" cy="11.289" r="4.948"/>
	<circle fill="#FFFFFF" cx="88.311" cy="19.977" r="4.01"/>
	<circle fill="#FFFFFF" cx="88.311" cy="27.852" r="3.948"/>
	<circle fill="#FFFFFF" cx="88.248" cy="35.914" r="3.948"/>
	<circle fill="#FFFFFF" cx="66.467" cy="15.091" r="4.834"/>
	<circle fill="#FFFFFF" cx="5.655" cy="15.093" r="3.531"/>
	<circle fill="#FFFFFF" cx="10.092" cy="9.968" r="3.281"/>
	<circle fill="#FFFFFF" cx="16.405" cy="8.03" r="3.281"/>
	<circle fill="#FFFFFF" cx="22.905" cy="9.655" r="3.406"/>
	<circle fill="#FFFFFF" cx="27.749" cy="14.437" r="3.312"/>
	<circle fill="#FFFFFF" cx="28.936" cy="21.624" r="3.938"/>
	<circle fill="#FFFFFF" cx="22.436" cy="22.812" r="2.625"/>
	<circle fill="#FFFFFF" cx="16.936" cy="22.728" r="2.875"/>
	<circle fill="#FFFFFF" cx="11.561" cy="22.895" r="2.625"/>
	<circle fill="#FFFFFF" cx="128.634" cy="31.946" r="3.094"/>
	<circle fill="#FFFFFF" cx="123.468" cy="35.718" r="3.281"/>
	<circle fill="#FFFFFF" cx="116.946" cy="37.134" r="3.281"/>
	<circle fill="#FFFFFF" cx="110.446" cy="35.446" r="3.344"/>
	<circle fill="#FFFFFF" cx="105.508" cy="30.571" r="3.594"/>
	<circle fill="#FFFFFF" cx="104.133" cy="22.696" r="4.406"/>
	<circle fill="#FFFFFF" cx="105.321" cy="14.759" r="3.531"/>
	<circle fill="#FFFFFF" cx="109.758" cy="9.634" r="3.281"/>
	<circle fill="#FFFFFF" cx="116.071" cy="7.696" r="3.281"/>
	<circle fill="#FFFFFF" cx="122.571" cy="9.321" r="3.406"/>
	<circle fill="#FFFFFF" cx="127.415" cy="14.103" r="3.312"/>
	<circle fill="#FFFFFF" cx="128.603" cy="21.29" r="3.938"/>
	<circle fill="#FFFFFF" cx="121.977" cy="22.54" r="2.625"/>
	<circle fill="#FFFFFF" cx="116.477" cy="22.457" r="2.875"/>
	<circle fill="#FFFFFF" cx="111.102" cy="22.624" r="2.625"/>
	<circle fill="#FFFFFF" cx="193.468" cy="31.946" r="3.094"/>
	<circle fill="#FFFFFF" cx="188.3" cy="35.718" r="3.281"/>
	<circle fill="#FFFFFF" cx="181.779" cy="37.134" r="3.281"/>
	<circle fill="#FFFFFF" cx="175.28" cy="35.446" r="3.344"/>
	<circle fill="#FFFFFF" cx="170.343" cy="30.571" r="3.594"/>
	<circle fill="#FFFFFF" cx="168.968" cy="22.696" r="4.406"/>
	<circle fill="#FFFFFF" cx="170.155" cy="14.759" r="3.531"/>
	<circle fill="#FFFFFF" cx="174.593" cy="9.634" r="3.281"/>
	<circle fill="#FFFFFF" cx="180.904" cy="7.696" r="3.281"/>
	<circle fill="#FFFFFF" cx="187.404" cy="8.321" r="3.406"/>
	<circle fill="#FFFFFF" cx="193.249" cy="11.103" r="3.312"/>
	<circle fill="#FFFFFF" cx="193.77" cy="24.456" r="4.271"/>
	<circle fill="#FFFFFF" cx="187.479" cy="23.04" r="2.625"/>
	<circle fill="#FFFFFF" cx="182.062" cy="23.123" r="2.75"/>
	<circle fill="#FFFFFF" cx="143.53" cy="31.03" r="3.562"/>
	<circle fill="#FFFFFF" cx="144.155" cy="36.905" r="3.938"/>
	<circle fill="#FFFFFF" cx="144.155" cy="24.905" r="3.938"/>
	<circle fill="#FFFFFF" cx="145.613" cy="18.571" r="2.604"/>
	<circle fill="#FFFFFF" cx="144.03" cy="9.363" r="3.938"/>
	<circle fill="#FFFFFF" cx="149.543" cy="15.001" r="2.354"/>
	<circle fill="#FFFFFF" cx="153.188" cy="10.94" r="3.21"/>
	<circle fill="#FFFFFF" cx="159.654" cy="8.695" r="3.979"/>
	<circle fill="#FFFFFF" cx="248.029" cy="35.696" r="3.938"/>
	<circle fill="#FFFFFF" cx="248.029" cy="27.821" r="3.938"/>
	<circle fill="#FFFFFF" cx="248.029" cy="20.03" r="3.938"/>
	<circle fill="#FFFFFF" cx="248.029" cy="9.155" r="3.938"/>
	<circle fill="#FFFFFF" cx="269.904" cy="23.093" r="3.938"/>
	<circle fill="#FFFFFF" cx="269.968" cy="35.655" r="3.938"/>
	<circle fill="#FFFFFF" cx="270.029" cy="29.281" r="2.25"/>
	<circle fill="#FFFFFF" cx="250" cy="14.571" r="2.198"/>
	<circle fill="#FFFFFF" cx="253.259" cy="11.925" r="1.875"/>
	<circle fill="#FFFFFF" cx="256.885" cy="9.091" r="2.792"/>
	<circle fill="#FFFFFF" cx="263.654" cy="8.487" r="3.979"/>
	<circle fill="#FFFFFF" cx="269.718" cy="14.507" r="4.584"/>
	<circle fill="#FFFFFF" cx="323.968" cy="31.612" r="3.094"/>
	<circle fill="#FFFFFF" cx="305.968" cy="36.218" r="3.281"/>
	<circle fill="#FFFFFF" cx="310.802" cy="31.884" r="3.281"/>
	<circle fill="#FFFFFF" cx="299.445" cy="37.634" r="3.281"/>
	<circle fill="#FFFFFF" cx="292.945" cy="35.946" r="3.344"/>
	<circle fill="#FFFFFF" cx="288.009" cy="31.071" r="3.594"/>
	<circle fill="#FFFFFF" cx="286.634" cy="23.196" r="4.406"/>
	<circle fill="#FFFFFF" cx="287.82" cy="15.259" r="3.531"/>
	<circle fill="#FFFFFF" cx="292.259" cy="10.134" r="3.281"/>
	<circle fill="#FFFFFF" cx="298.57" cy="8.196" r="3.281"/>
	<circle fill="#FFFFFF" cx="305.07" cy="9.821" r="3.406"/>
	<circle fill="#FFFFFF" cx="309.915" cy="14.603" r="3.312"/>
	<circle fill="#FFFFFF" cx="232.468" cy="31.946" r="3.094"/>
	<circle fill="#FFFFFF" cx="227.3" cy="35.718" r="3.281"/>
	<circle fill="#FFFFFF" cx="220.779" cy="37.134" r="3.281"/>
	<circle fill="#FFFFFF" cx="214.279" cy="35.446" r="3.344"/>
	<circle fill="#FFFFFF" cx="209.343" cy="30.571" r="3.594"/>
	<circle fill="#FFFFFF" cx="207.968" cy="22.696" r="4.406"/>
	<circle fill="#FFFFFF" cx="209.154" cy="14.759" r="3.531"/>
	<circle fill="#FFFFFF" cx="213.593" cy="9.634" r="3.281"/>
	<circle fill="#FFFFFF" cx="219.904" cy="7.696" r="3.281"/>
	<circle fill="#FFFFFF" cx="226.404" cy="9.321" r="3.406"/>
	<circle fill="#FFFFFF" cx="231.249" cy="14.103" r="3.312"/>
	<circle fill="#FFFFFF" cx="232.438" cy="21.29" r="3.938"/>
	<circle fill="#FFFFFF" cx="225.812" cy="22.54" r="2.625"/>
	<circle fill="#FFFFFF" cx="220.312" cy="22.457" r="2.875"/>
	<circle fill="#FFFFFF" cx="214.938" cy="22.624" r="2.625"/>
	<circle fill="#FFFFFF" cx="347.468" cy="32.112" r="3.094"/>
	<circle fill="#FFFFFF" cx="342.302" cy="35.884" r="3.281"/>
	<circle fill="#FFFFFF" cx="335.779" cy="37.3" r="3.281"/>
	<circle fill="#FFFFFF" cx="329.279" cy="35.612" r="3.344"/>
	<circle fill="#FFFFFF" cx="324.343" cy="30.737" r="3.594"/>
	<circle fill="#FFFFFF" cx="322.968" cy="22.862" r="4.406"/>
	<circle fill="#FFFFFF" cx="324.154" cy="14.925" r="3.531"/>
	<circle fill="#FFFFFF" cx="328.593" cy="9.8" r="3.281"/>
	<circle fill="#FFFFFF" cx="334.904" cy="7.862" r="3.281"/>
	<circle fill="#FFFFFF" cx="341.404" cy="9.487" r="3.406"/>
	<circle fill="#FFFFFF" cx="346.249" cy="14.269" r="3.312"/>
	<circle fill="#FFFFFF" cx="347.438" cy="21.456" r="3.938"/>
	<circle fill="#FFFFFF" cx="340.812" cy="22.706" r="2.625"/>
	<circle fill="#FFFFFF" cx="335.312" cy="22.624" r="2.875"/>
	<circle fill="#FFFFFF" cx="329.938" cy="22.79" r="2.625"/>
</g>
</svg>
