<?xml version="1.0" encoding="utf-8"?>
<!-- Generator: Adobe Illustrator 16.2.1, SVG Export Plug-In . SVG Version: 6.00 Build 0)  -->
<!DOCTYPE svg PUBLIC "-//W3C//DTD SVG 1.1//EN" "http://www.w3.org/Graphics/SVG/1.1/DTD/svg11.dtd">
<svg version="1.1" id="Layer_1" xmlns="http://www.w3.org/2000/svg" xmlns:xlink="http://www.w3.org/1999/xlink" x="0px" y="0px"
	 width="353.333px" height="48.667px" viewBox="11.708 35.408 353.333 48.667"
	 enable-background="new 11.708 35.408 353.333 48.667" xml:space="preserve">
<path fill="#67BFCD" d="M101.452,40.803c-2.096-2.285-5.004-3.428-8.726-3.428c-2.567,0-4.781,0.561-6.64,1.68
	c-1.862,1.121-3.476,2.604-4.844,4.447c-0.894-1.843-2.179-3.326-3.859-4.447c-1.679-1.119-3.731-1.68-6.154-1.68
	c-1.277,0-2.436,0.163-3.478,0.494s-1.978,0.779-2.807,1.352c-0.829,0.57-1.562,1.207-2.2,1.91c-0.638,0.703-1.234,1.449-1.785,2.24
	v-2.298h-7.807v29.073h7.807V53.22c0-2.691,0.658-4.798,1.975-6.318c1.315-1.519,3.057-2.28,5.223-2.28
	c2.165,0,3.842,0.718,5.031,2.149c1.189,1.435,1.783,3.497,1.783,6.188v17.188h7.807V53.156c0-2.78,0.668-4.897,2.006-6.351
	c1.337-1.455,3.068-2.184,5.191-2.184c2.166,0,3.842,0.718,5.031,2.149c1.189,1.435,1.784,3.519,1.784,6.254v17.122h7.807V50.563
	C104.597,46.342,103.548,43.088,101.452,40.803z"/>
<path fill="#67BFCD" d="M204.001,42.047v1.265c-1.322-1.608-2.912-2.992-4.768-4.146s-4.213-1.729-7.07-1.729
	c-1.96,0-3.871,0.369-5.727,1.109s-3.498,1.795-4.926,3.166c-1.43,1.371-2.57,3.069-3.424,5.094
	c-0.853,2.023-1.279,4.299-1.279,6.822v0.131c0,2.523,0.425,4.789,1.279,6.789c0.854,2.004,1.994,3.689,3.424,5.061
	c1.428,1.371,3.061,2.429,4.895,3.166c1.834,0.742,3.754,1.111,5.758,1.111c2.774,0,5.099-0.589,6.976-1.764
	c1.877-1.176,3.521-2.697,4.928-4.57v2.691c0,3.499-0.918,6.145-2.752,7.938s-4.479,2.691-7.935,2.691
	c-2.303,0-4.437-0.328-6.397-0.98c-1.105-0.367-2.18-0.819-3.23-1.338l-2.411,6.091c3.706,1.696,7.778,2.56,12.232,2.56
	c3.071,0,5.768-0.38,8.092-1.143c2.324-0.762,4.256-1.926,5.791-3.492c2.857-2.918,4.287-7.248,4.287-12.993V42.047H204.001z
	 M204.132,53.758c0,1.392-0.268,2.666-0.801,3.818c-0.535,1.153-1.248,2.153-2.144,3.004c-0.897,0.849-1.953,1.502-3.168,1.959
	s-2.487,0.686-3.808,0.686c-1.321,0-2.568-0.228-3.742-0.685c-1.174-0.457-2.185-1.109-3.039-1.959
	c-0.854-0.851-1.535-1.851-2.047-3.004c-0.512-1.153-0.768-2.447-0.768-3.886v-0.131c0-1.436,0.244-2.73,0.734-3.885
	c0.49-1.153,1.174-2.143,2.049-2.971c0.873-0.826,1.887-1.47,3.039-1.927c1.152-0.456,2.41-0.686,3.774-0.686
	c1.322,0,2.593,0.229,3.808,0.686c1.215,0.457,2.272,1.111,3.168,1.959c0.896,0.851,1.61,1.853,2.144,3.005
	c0.533,1.154,0.801,2.446,0.801,3.885V53.758z"/>
<path fill="#67BFCD" d="M264.184,41.948h-7.808v26.979h7.807V53.153c0-2.69,0.697-4.786,2.094-6.284
	c1.395-1.498,3.213-2.248,5.455-2.248c2.283,0,4.049,0.729,5.295,2.184c1.248,1.453,1.873,3.528,1.873,6.221v15.903h7.805V50.629
	c0-4.049-1.041-7.27-3.125-9.664c-2.084-2.393-5.041-3.59-8.869-3.59c-1.317,0-2.5,0.164-3.541,0.494
	c-1.043,0.331-2,0.779-2.871,1.352c-0.873,0.57-1.639,1.218-2.297,1.943c-0.66,0.725-1.265,1.504-1.817,2.338V41.948z"/>
<path fill="#67BFCD" d="M29.99,73.35c-2.432,0-4.703-0.436-6.814-1.307c-2.111-0.869-3.945-2.088-5.502-3.656
	c-1.558-1.566-2.783-3.449-3.68-5.646c-0.896-2.198-1.344-4.625-1.344-7.28V55.33c0-2.482,0.405-4.812,1.217-6.986
	c0.809-2.176,1.951-4.08,3.422-5.713c1.473-1.633,3.21-2.916,5.215-3.853c2.005-0.936,4.224-1.403,6.654-1.403
	c2.688,0,5.045,0.5,7.07,1.502s3.712,2.35,5.055,4.047c1.344,1.697,2.357,3.668,3.04,5.91c0.682,2.242,1.023,4.602,1.023,7.084
	c0,0.348-0.011,0.707-0.032,1.076c-0.021,0.371-0.054,0.752-0.096,1.143H20.393c0.426,2.83,1.525,4.995,3.295,6.497
	s3.914,2.254,6.432,2.254c1.919,0,3.582-0.35,4.99-1.045c1.408-0.695,2.793-1.719,4.159-3.068l4.542,4.113
	c-1.621,1.957-3.551,3.525-5.79,4.699C35.781,72.762,33.104,73.35,29.99,73.35z M37.669,52.914c-0.128-1.263-0.406-2.449-0.832-3.56
	c-0.427-1.108-1.003-2.065-1.728-2.873c-0.726-0.805-1.59-1.446-2.592-1.926c-1.002-0.479-2.143-0.719-3.423-0.719
	c-2.39,0-4.362,0.84-5.919,2.514c-1.557,1.676-2.506,3.863-2.847,6.562L37.669,52.914L37.669,52.914z"/>
<path fill="#67BFCD" d="M129.422,73.35c-2.432,0-4.703-0.436-6.814-1.307c-2.111-0.869-3.945-2.088-5.502-3.656
	c-1.559-1.566-2.784-3.449-3.68-5.646c-0.896-2.198-1.344-4.625-1.344-7.28V55.33c0-2.482,0.404-4.812,1.216-6.986
	c0.81-2.176,1.951-4.08,3.423-5.713c1.472-1.633,3.209-2.916,5.215-3.853c2.004-0.936,4.223-1.403,6.654-1.403
	c2.688,0,5.043,0.5,7.071,1.502c2.025,1.002,3.711,2.35,5.055,4.047c1.344,1.697,2.355,3.668,3.039,5.91
	c0.682,2.242,1.023,4.602,1.023,7.084c0,0.348-0.01,0.707-0.031,1.076c-0.021,0.371-0.055,0.752-0.096,1.143h-24.827
	c0.426,2.83,1.524,4.995,3.295,6.497c1.77,1.502,3.913,2.254,6.431,2.254c1.919,0,3.583-0.35,4.992-1.045
	c1.406-0.695,2.793-1.719,4.158-3.068l4.543,4.113c-1.621,1.957-3.551,3.525-5.791,4.699
	C135.213,72.762,132.536,73.35,129.422,73.35z M137.1,52.914c-0.127-1.263-0.406-2.449-0.832-3.56
	c-0.426-1.109-1.002-2.065-1.727-2.873c-0.727-0.805-1.59-1.446-2.592-1.926c-1.003-0.479-2.144-0.719-3.424-0.719
	c-2.389,0-4.361,0.84-5.918,2.514c-1.558,1.676-2.506,3.863-2.848,6.562L137.1,52.914L137.1,52.914z"/>
<path fill="#67BFCD" d="M152.583,38.094h7.807v7.771c1.066-2.613,2.58-4.701,4.543-6.271c1.961-1.566,4.436-2.285,7.422-2.154v8.357
	h-0.447c-1.707,0-3.264,0.283-4.672,0.85c-1.406,0.566-2.623,1.414-3.646,2.545c-1.023,1.134-1.812,2.56-2.367,4.277
	c-0.555,1.721-0.832,3.711-0.832,5.975v13.124h-7.807L152.583,38.094L152.583,38.094z"/>
<path fill="#67BFCD" d="M233.214,73.35c-2.432,0-4.702-0.436-6.813-1.307c-2.11-0.869-3.944-2.088-5.502-3.656
	c-1.558-1.566-2.782-3.449-3.681-5.646c-0.895-2.198-1.344-4.625-1.344-7.28V55.33c0-2.482,0.406-4.812,1.217-6.986
	c0.81-2.176,1.951-4.08,3.423-5.713c1.473-1.633,3.211-2.916,5.215-3.853c2.006-0.936,4.226-1.403,6.653-1.403
	c2.688,0,5.046,0.5,7.07,1.502c2.025,1.002,3.713,2.35,5.055,4.047c1.345,1.697,2.357,3.668,3.041,5.91
	c0.683,2.242,1.023,4.602,1.023,7.084c0,0.348-0.012,0.707-0.033,1.076c-0.021,0.371-0.053,0.752-0.096,1.143h-24.826
	c0.426,2.83,1.525,4.995,3.295,6.497c1.771,1.502,3.914,2.254,6.432,2.254c1.921,0,3.582-0.35,4.99-1.045s2.793-1.719,4.16-3.068
	l4.541,4.113c-1.621,1.957-3.551,3.525-5.789,4.699C239.005,72.762,236.33,73.35,233.214,73.35z M240.895,52.914
	c-0.129-1.263-0.405-2.449-0.832-3.56c-0.429-1.108-1.004-2.065-1.729-2.873c-0.725-0.805-1.59-1.446-2.592-1.926
	c-1.002-0.479-2.143-0.719-3.422-0.719c-2.391,0-4.363,0.84-5.92,2.514c-1.557,1.676-2.506,3.863-2.846,6.562L240.895,52.914
	L240.895,52.914z"/>
<path fill="#67BFCD" d="M311.723,73.35c-2.519,0-4.843-0.469-6.978-1.404c-2.133-0.936-3.983-2.209-5.555-3.817
	c-1.57-1.609-2.795-3.504-3.678-5.683c-0.881-2.176-1.322-4.482-1.322-6.92v-0.131c0-2.438,0.441-4.754,1.322-6.953
	c0.883-2.196,2.107-4.112,3.678-5.746c1.57-1.631,3.432-2.926,5.588-3.885c2.154-0.957,4.49-1.436,7.008-1.436
	c3.199,0,5.855,0.545,7.967,1.633c2.113,1.088,3.955,2.523,5.533,4.309l-4.799,5.289c-1.193-1.264-2.463-2.297-3.807-3.102
	s-2.996-1.209-4.959-1.209c-1.406,0-2.709,0.295-3.902,0.883c-1.195,0.586-2.219,1.371-3.07,2.35
	c-0.854,0.979-1.526,2.146-2.016,3.492c-0.492,1.351-0.736,2.767-0.736,4.244v0.131c0,1.523,0.244,2.961,0.736,4.31
	c0.488,1.35,1.184,2.525,2.078,3.527c0.896,1.002,1.963,1.795,3.199,2.384c1.236,0.588,2.602,0.881,4.096,0.881
	c1.834,0,3.443-0.402,4.83-1.207c1.387-0.808,2.697-1.84,3.936-3.103l4.672,4.701c-1.664,1.916-3.562,3.471-5.694,4.668
	C317.716,72.75,315.007,73.35,311.723,73.35z"/>
<path fill="#67BFCD" d="M348.067,73.35c-2.433,0-4.703-0.436-6.813-1.307c-2.111-0.869-3.945-2.088-5.502-3.656
	c-1.56-1.566-2.783-3.449-3.681-5.646c-0.896-2.198-1.344-4.625-1.344-7.28V55.33c0-2.482,0.403-4.812,1.217-6.986
	c0.81-2.176,1.951-4.08,3.423-5.713c1.473-1.633,3.209-2.916,5.215-3.853c2.004-0.936,4.223-1.403,6.653-1.403
	c2.688,0,5.043,0.5,7.07,1.502c2.024,1.002,3.711,2.35,5.055,4.047c1.345,1.697,2.356,3.668,3.039,5.91s1.022,4.602,1.022,7.084
	c0,0.348-0.01,0.707-0.03,1.076c-0.021,0.371-0.056,0.752-0.097,1.143h-24.826c0.427,2.83,1.525,4.995,3.296,6.497
	s3.914,2.254,6.43,2.254c1.921,0,3.584-0.35,4.992-1.045c1.405-0.695,2.793-1.719,4.157-3.068l4.544,4.113
	c-1.621,1.957-3.552,3.525-5.791,4.699C353.858,72.762,351.18,73.35,348.067,73.35z M355.746,52.914
	c-0.127-1.263-0.406-2.449-0.832-3.56c-0.427-1.109-1.002-2.065-1.728-2.873c-0.728-0.805-1.59-1.446-2.593-1.926
	c-1.002-0.479-2.143-0.719-3.424-0.719c-2.389,0-4.36,0.84-5.918,2.514c-1.557,1.676-2.506,3.863-2.848,6.562L355.746,52.914
	L355.746,52.914z"/>
<circle fill="#FFE773" cx="182.819" cy="77.663" r="3.301"/>
<rect x="49.779" y="68.928" fill="none" width="39.844" height="5.25"/>
<ellipse transform="matrix(-0.7456 -0.6664 0.6664 -0.7456 28.8312 141.0223)" fill="#FFE773" cx="41.335" cy="65.008" rx="3.044" ry="2.459"/>
<circle fill="#67BFCD" cx="140.934" cy="64.813" r="3.094"/>
<ellipse fill="#67BFCD" cx="172.499" cy="41.527" rx="3.363" ry="4.197"/>
<circle fill="#67BFCD" cx="78.914" cy="68.729" r="3.896"/>
<circle fill="#67BFCD" cx="57.102" cy="68.792" r="3.896"/>
<ellipse fill="#FFE773" cx="57.024" cy="40.836" rx="3.88" ry="2.78"/>
<ellipse fill="#67BFCD" cx="78.798" cy="70.518" rx="3.96" ry="2.854"/>
<ellipse fill="#67BFCD" cx="57.173" cy="70.518" rx="3.96" ry="2.854"/>
<circle fill="#FFE773" cx="260.373" cy="68.729" r="3.896"/>
<circle fill="#67BFCD" cx="282.81" cy="68.542" r="3.896"/>
<circle fill="#67BFCD" cx="323.27" cy="64.5" r="3.281"/>
<ellipse fill="#FFE773" cx="322.839" cy="45.932" rx="3.604" ry="3.412"/>
<circle fill="#FFE773" cx="244.602" cy="64.897" r="3.094"/>
<circle fill="#FFE773" cx="359.518" cy="64.979" r="3.094"/>
<circle fill="#67BFCD" cx="260.274" cy="41.936" r="3.881"/>
<ellipse fill="#FFE773" cx="207.887" cy="41.275" rx="3.881" ry="3.132"/>
<ellipse fill="#FFE773" cx="100.673" cy="70.518" rx="3.96" ry="2.854"/>
<path fill="none" d="M209.042,41.074c3.212,0.517,6.026-2.127,8.982-3.275c6.137-2.381,14.146-3.099,20.642-3.398
	c7.357-0.339,17.594-1.176,21.043,6.34"/>
</svg>
